HIERARCHY
ROOT Hips
{
  OFFSET -21.6994 31.6921 0
  CHANNELS 6 Xposition Yposition Zposition Zrotation Xrotation Yrotation
  JOINT Bip01_Pelvis
  {
    OFFSET 0 0 0
    CHANNELS 6 Xposition Yposition Zposition Zrotation Xrotation Yrotation
    JOINT BN_Tail_01
    {
      OFFSET -7.25226 -1.74978 0
      CHANNELS 6 Xposition Yposition Zposition Zrotation Xrotation Yrotation
      JOINT BN_Tail_02
      {
        OFFSET 15.788 0 0
        CHANNELS 6 Xposition Yposition Zposition Zrotation Xrotation Yrotation
        JOINT BN_Tail_03
        {
          OFFSET 16.0015 0 0
          CHANNELS 6 Xposition Yposition Zposition Zrotation Xrotation Yrotation
          JOINT BN_Tail_04
          {
            OFFSET 16.1689 0 0
            CHANNELS 6 Xposition Yposition Zposition Zrotation Xrotation Yrotation
            End Site
            {
              OFFSET 0 0 0
            }
          }
        }
      }
    }
    JOINT Bip01_Spine
    {
      OFFSET 6.38383 2.70859 0.585432
      CHANNELS 6 Xposition Yposition Zposition Zrotation Xrotation Yrotation
      JOINT BN_Mane_02
      {
        OFFSET 6.12662 8.45826 0
        CHANNELS 6 Xposition Yposition Zposition Zrotation Xrotation Yrotation
        End Site
        {
          OFFSET 0 0 0
        }
      }
      JOINT Bip01_R_Thigh
      {
        OFFSET -7.04074 -2.18223 -5.47025
        CHANNELS 6 Xposition Yposition Zposition Zrotation Xrotation Yrotation
        JOINT Bip01_R_Calf
        {
          OFFSET 13.6591 0 0
          CHANNELS 6 Xposition Yposition Zposition Zrotation Xrotation Yrotation
          JOINT Bip01_R_HorseLink
          {
            OFFSET 9.07516 0 0
            CHANNELS 6 Xposition Yposition Zposition Zrotation Xrotation Yrotation
            JOINT Bip01_R_Foot
            {
              OFFSET 8.13856 0 0
              CHANNELS 6 Xposition Yposition Zposition Zrotation Xrotation Yrotation
              JOINT Bip01_R_Toe0
              {
                OFFSET 3.79737 6.30086 0
                CHANNELS 6 Xposition Yposition Zposition Zrotation Xrotation Yrotation
                JOINT Bip01_R_Toe0Nub
                {
                  OFFSET 0.838764 0 0
                  CHANNELS 6 Xposition Yposition Zposition Zrotation Xrotation Yrotation
                  End Site
                  {
                    OFFSET 0 0 0
                  }
                }
              }
            }
          }
        }
      }
      JOINT Bip01_L_Thigh
      {
        OFFSET -6.18667 -2.14873 5.3508
        CHANNELS 6 Xposition Yposition Zposition Zrotation Xrotation Yrotation
        JOINT Bip01_L_Calf
        {
          OFFSET 13.6591 0 0
          CHANNELS 6 Xposition Yposition Zposition Zrotation Xrotation Yrotation
          JOINT Bip01_L_HorseLink
          {
            OFFSET 9.07515 0 0
            CHANNELS 6 Xposition Yposition Zposition Zrotation Xrotation Yrotation
            JOINT Bip01_L_Foot
            {
              OFFSET 8.13856 0 0
              CHANNELS 6 Xposition Yposition Zposition Zrotation Xrotation Yrotation
              JOINT Bip01_L_Toe0
              {
                OFFSET 3.79737 6.30086 0
                CHANNELS 6 Xposition Yposition Zposition Zrotation Xrotation Yrotation
                JOINT Bip01_L_Toe0Nub
                {
                  OFFSET 0.838764 0 0
                  CHANNELS 6 Xposition Yposition Zposition Zrotation Xrotation Yrotation
                  End Site
                  {
                    OFFSET 0 0 0
                  }
                }
              }
            }
          }
        }
      }
      JOINT Bip01_Spine1
      {
        OFFSET 12.1687 -0.0105438 0
        CHANNELS 6 Xposition Yposition Zposition Zrotation Xrotation Yrotation
        JOINT BN_Mane_R_01
        {
          OFFSET -0.157498 5.09008 -6.54008
          CHANNELS 6 Xposition Yposition Zposition Zrotation Xrotation Yrotation
          End Site
          {
            OFFSET 0 0 0
          }
        }
        JOINT BN_Mane_R_02
        {
          OFFSET -0.1575 5.09007 6.54
          CHANNELS 6 Xposition Yposition Zposition Zrotation Xrotation Yrotation
          End Site
          {
            OFFSET 0 0 0
          }
        }
        JOINT BN_Mane_01
        {
          OFFSET 8.29709 8.50414 0
          CHANNELS 6 Xposition Yposition Zposition Zrotation Xrotation Yrotation
          End Site
          {
            OFFSET 0 0 0
          }
        }
        JOINT Bip01_Spine2
        {
          OFFSET 13.2802 -0.0100708 1.51992e-005
          CHANNELS 6 Xposition Yposition Zposition Zrotation Xrotation Yrotation
          JOINT Bip01_Neck
          {
            OFFSET 12.4891 -6.66662 0
            CHANNELS 6 Xposition Yposition Zposition Zrotation Xrotation Yrotation
            JOINT Bip01_R_Clavicle
            {
              OFFSET -7.4542 -2.82621 -1.17874
              CHANNELS 6 Xposition Yposition Zposition Zrotation Xrotation Yrotation
              JOINT Bip01_R_UpperArm
              {
                OFFSET 13.2557 0 0
                CHANNELS 6 Xposition Yposition Zposition Zrotation Xrotation Yrotation
                JOINT Bip01_R_Forearm
                {
                  OFFSET 12.8897 0 0
                  CHANNELS 6 Xposition Yposition Zposition Zrotation Xrotation Yrotation
                  JOINT Bip01_R_Hand
                  {
                    OFFSET 11.2622 0 0
                    CHANNELS 6 Xposition Yposition Zposition Zrotation Xrotation Yrotation
                    JOINT Bip01_R_Finger0
                    {
                      OFFSET 3.98015 -0.208661 -0.0949803
                      CHANNELS 6 Xposition Yposition Zposition Zrotation Xrotation Yrotation
                      JOINT Bip01_R_Finger0Nub
                      {
                        OFFSET 6.57561 0 0
                        CHANNELS 6 Xposition Yposition Zposition Zrotation Xrotation Yrotation
                        End Site
                        {
                          OFFSET 0 0 0
                        }
                      }
                    }
                  }
                }
              }
            }
            JOINT Bip01_L_Clavicle
            {
              OFFSET -7.4541 -2.82679 1.17708
              CHANNELS 6 Xposition Yposition Zposition Zrotation Xrotation Yrotation
              JOINT Bip01_L_UpperArm
              {
                OFFSET 13.2558 0 0
                CHANNELS 6 Xposition Yposition Zposition Zrotation Xrotation Yrotation
                JOINT Bip01_L_Forearm
                {
                  OFFSET 12.8897 0 0
                  CHANNELS 6 Xposition Yposition Zposition Zrotation Xrotation Yrotation
                  JOINT Bip01_L_Hand
                  {
                    OFFSET 11.2622 0 0
                    CHANNELS 6 Xposition Yposition Zposition Zrotation Xrotation Yrotation
                    JOINT Bip01_L_Finger0
                    {
                      OFFSET 3.98014 -0.20866 0.0949764
                      CHANNELS 6 Xposition Yposition Zposition Zrotation Xrotation Yrotation
                      JOINT Bip01_L_Finger0Nub
                      {
                        OFFSET 6.57562 0 0
                        CHANNELS 6 Xposition Yposition Zposition Zrotation Xrotation Yrotation
                        End Site
                        {
                          OFFSET 0 0 0
                        }
                      }
                    }
                  }
                }
              }
            }
            JOINT Bip01_Neck1
            {
              OFFSET 4.19352 -0.00332451 0
              CHANNELS 6 Xposition Yposition Zposition Zrotation Xrotation Yrotation
              JOINT Bip01_Head
              {
                OFFSET 4.17604 0.298252 0
                CHANNELS 6 Xposition Yposition Zposition Zrotation Xrotation Yrotation
                JOINT BN_Eye_R_01
                {
                  OFFSET 6.53258 -3.90694 -2.55361
                  CHANNELS 6 Xposition Yposition Zposition Zrotation Xrotation Yrotation
                  End Site
                  {
                    OFFSET 0 0 0
                  }
                }
                JOINT BN_Eye_L_01
                {
                  OFFSET 6.5326 -3.90694 2.55371
                  CHANNELS 6 Xposition Yposition Zposition Zrotation Xrotation Yrotation
                  End Site
                  {
                    OFFSET 0 0 0
                  }
                }
                JOINT BN_Ear_R_01
                {
                  OFFSET 1.75934 -4.1584 -4.45634
                  CHANNELS 6 Xposition Yposition Zposition Zrotation Xrotation Yrotation
                  End Site
                  {
                    OFFSET 0 0 0
                  }
                }
                JOINT BN_Ear_L_01
                {
                  OFFSET 1.75933 -4.15841 4.45616
                  CHANNELS 6 Xposition Yposition Zposition Zrotation Xrotation Yrotation
                  End Site
                  {
                    OFFSET 0 0 0
                  }
                }
                JOINT BN_Beard_L_01
                {
                  OFFSET 11.2964 -1.06183 2.32054
                  CHANNELS 6 Xposition Yposition Zposition Zrotation Xrotation Yrotation
                  End Site
                  {
                    OFFSET 0 0 0
                  }
                }
                JOINT BN_Beard_R_01
                {
                  OFFSET 11.2964 -1.06182 -2.32036
                  CHANNELS 6 Xposition Yposition Zposition Zrotation Xrotation Yrotation
                  End Site
                  {
                    OFFSET 0 0 0
                  }
                }
                JOINT BN_Mouth_0
                {
                  OFFSET 1.3149 1.30001 0
                  CHANNELS 6 Xposition Yposition Zposition Zrotation Xrotation Yrotation
                  End Site
                  {
                    OFFSET 0 0 0
                  }
                }
                JOINT Bip01_HeadNub
                {
                  OFFSET 12.6869 0 0
                  CHANNELS 6 Xposition Yposition Zposition Zrotation Xrotation Yrotation
                  End Site
                  {
                    OFFSET 0 0 0
                  }
                }
              }
            }
          }
        }
      }
    }
  }
}
MOTION
Frames:	4
Frame Time:	0.0333333
-37.307 12.8021 12.1358 27.8834 -57.5755 90.1719 -1.90735e-006 1.77636e-015 -1.90735e-006 -125.632 -10.0619 -70.5764 -7.25225 -1.74978 -1.90735e-006 -31.0814 18.3779 -155.969 15.5937 -0.270844 -0.188577 -23.7394 31.6905 91.3479 15.9314 1.14111 0.351143 -18.5393 29.0528 57.4763 16.1689 0 0 -23.5736 -4.67383 42.1258 5.7928 1.04859 3.71535 24.9704 26.369 -34.5763 6.12661 8.45826 4.76837e-007 -88.9944 -0.0318756 -179.968 -9.71455 -2.72063 -4.06076 -140.997 17.9976 138.025 13.6591 -4.76837e-007 -1.90735e-006 -131.239 -6.57122e-006 5.28044e-006 9.07515 9.53674e-007 -1.90735e-006 157.763 2.01843e-007 -7.59884e-007 8.13856 -2.98023e-008 -3.55271e-015 -79.6435 -44.4189 9.7747 3.79737 6.30086 2.14577e-006 142.316 15.416 11.602 0.838764 -1.90735e-006 1.43051e-006 1.19545e-006 5.53491e-006 9.74538e-009 -4.19683 2.1015 3.9467 -131.816 -1.17247 -161.891 13.6591 2.86102e-006 3.55271e-015 -108.837 -9.13474e-006 1.85582e-005 9.07515 -9.53674e-007 -1.90735e-006 136.648 -1.10974e-005 -2.31764e-006 8.13856 9.53674e-007 0 -76.5287 15.7117 -41.314 3.79737 6.30086 0 89.9995 6.76526e-005 -12.4979 0.838761 1.49012e-008 0 -179.96 9.9254e-005 -1.59995e-005 12.1681 -0.0104809 4.76837e-007 -7.80471 0.00673974 0.00396426 -0.1575 5.09008 -6.54008 -92.7406 -0.022027 -167.965 -0.157498 5.09006 6.54 87.255 -0.000390228 12.0139 8.29709 8.50413 8.88178e-016 -91.651 -0.0231628 -179.978 13.2887 -0.00747108 -8.88178e-016 42.883 -0.012309 -0.213093 12.4892 -6.66662 -6.96182e-005 -2.91167 1.03389 -0.211624 -7.5323 -2.64523 -1.10224 -177.277 -25.8248 111.604 13.2557 -3.55271e-015 -4.76837e-007 69.3631 12.5159 -107.483 12.8897 9.53674e-007 0 -133.775 9.39381e-006 -1.23775e-005 11.2622 5.96046e-008 -1.90735e-006 -138.817 83.0018 141.497 3.98015 -0.208662 -0.0949758 2.28135 8.82031 -35.8714 6.57562 1.90735e-006 4.4409e-016 -179.96 4.45228e-005 1.72506e-005 -7.52379 -2.60253 1.25335 -176.743 56.3509 -94.1245 13.2557 3.55271e-015 0 92.423 -68.047 146.245 12.8897 0 0 -92.6736 -2.51257e-005 3.49269e-006 11.2623 -8.88178e-016 1.77636e-015 22.2558 -67.6446 -1.48975 3.98015 -0.208661 0.0949756 2.00579 -31.3833 43.1931 6.57562 1.77636e-015 -5.96046e-008 9.41599e-007 1.05453e-005 3.1556e-007 4.19563 -0.00280762 -4.76837e-007 32.6561 -1.65126e-005 5.92718e-006 4.17604 0.298252 -4.76837e-007 23.134 -1.66933 8.35578 6.53259 -3.90694 -2.55362 141.902 15.4321 161.03 6.5326 -3.90695 2.55371 -41.2018 16.3931 -18.1327 1.75934 -4.15839 -4.45634 24.7931 -39.7306 142.462 1.75934 -4.15841 4.45617 -155.196 -39.7317 -37.5282 11.2964 -1.06183 2.32054 151.29 -2.13806 -120.777 11.2964 -1.06182 -2.32036 -28.7058 -2.13792 61.698 1.31489 1.30001 -4.76837e-007 -174.981 -0.0306702 -179.999 12.6869 2.86102e-006 -4.44089e-016 -8.43776e-008 1.17784e-005 -2.19225e-007 
-37.3122 12.807 12.134 27.8633 -57.5945 90.153 -1.90735e-006 1.77636e-015 -1.90735e-006 -125.752 -9.99966 -70.5362 -7.25225 -1.74978 -1.90737e-006 -30.9784 18.5189 -156.02 15.5937 -0.270844 -0.188577 -23.7243 31.6705 91.4021 15.9314 1.14111 0.351143 -18.5393 29.0528 57.4763 16.1689 9.32587e-015 0 -23.5736 -4.67383 42.1258 5.78767 1.05291 3.72381 25.0905 26.4661 -34.7975 6.12661 8.45826 4.77922e-007 -88.9944 -0.0318756 -179.968 -9.72729 -2.7354 -4.03013 -140.958 17.9679 137.935 13.6591 -4.76837e-007 -1.90735e-006 -131.128 -5.50411e-006 6.21033e-006 9.07515 9.53674e-007 -1.90735e-006 157.608 3.88398e-006 -9.67569e-006 8.13856 -2.98023e-008 3.55271e-015 -79.6282 -44.4178 9.7809 3.79737 6.30086 2.14566e-006 142.316 15.416 11.602 0.838764 -1.90735e-006 1.43051e-006 1.19545e-006 5.53491e-006 9.74538e-009 -4.18292 2.10343 3.94864 -131.756 -1.27532 -161.962 13.6591 2.86102e-006 3.55271e-015 -108.843 -9.12443e-006 1.85445e-005 9.07515 -9.53674e-007 -1.90735e-006 136.668 -1.11062e-005 -2.30161e-006 8.13856 9.53674e-007 3.55271e-015 -76.5091 15.7027 -41.3328 3.79737 6.30086 -8.45652e-011 89.9995 6.76526e-005 -12.4979 0.838761 1.49012e-008 -1.77636e-015 -179.96 9.9254e-005 -1.59995e-005 12.1681 -0.0104809 4.76836e-007 -7.79055 0.00650341 0.00748845 -0.1575 5.09008 -6.54008 -92.7406 -0.0220269 -167.965 -0.157498 5.09006 6.54 87.255 -0.000390228 12.0139 8.29709 8.50413 9.24987e-010 -91.651 -0.0231628 -179.978 13.2887 -0.00747108 -8.1446e-013 42.9096 -0.017362 -0.13884 12.4892 -6.66662 -6.96178e-005 -2.74294 0.79595 -0.176468 -7.53855 -2.61988 -1.11825 -177.418 -26.0445 111.659 13.2557 7.10543e-015 -4.76837e-007 69.5346 12.6127 -107.482 12.8897 9.53674e-007 7.10543e-015 -133.479 2.58213e-006 -1.88014e-005 11.2622 5.96046e-008 -1.90735e-006 -140.245 82.9092 142.814 3.98015 -0.208662 -0.0949758 2.27293 8.80506 -35.8859 6.57562 1.90735e-006 1.59872e-014 -179.96 4.45228e-005 1.72506e-005 -7.53132 -2.58693 1.23738 -176.99 56.119 -94.0356 13.2557 -1.42109e-014 -2.84217e-014 92.2877 -68.1799 146.177 12.8897 1.77636e-015 -1.06581e-014 -92.5324 -1.5137e-005 3.98142e-006 11.2623 7.10542e-015 -7.10543e-015 21.7058 -67.5771 -1.96081 3.98015 -0.208661 0.0949756 1.97231 -31.349 43.1928 6.57562 2.13163e-014 -5.96046e-008 9.41599e-007 1.05453e-005 3.1556e-007 4.19563 -0.00280762 -4.76837e-007 32.6561 -1.59455e-005 6.69414e-006 4.17604 0.298252 -4.77308e-007 23.317 -1.40982 8.48444 6.53259 -3.90694 -2.55362 142.004 15.3902 161.02 6.5326 -3.90695 2.55371 -41.0832 16.3466 -18.1421 1.75934 -4.15839 -4.45634 24.5848 -39.6267 142.202 1.75934 -4.15841 4.45617 -154.803 -39.9349 -37.0481 11.2964 -1.06183 2.32054 151.441 -1.88267 -120.019 11.2964 -1.06182 -2.32036 -28.8886 -1.91712 61.5515 1.31489 1.30001 -4.7894e-007 -174.916 -0.0308838 -179.999 12.6869 2.86102e-006 1.33227e-015 -8.43776e-008 1.17784e-005 -2.19226e-007 
-37.3174 12.8118 12.1322 27.8378 -57.618 90.1444 -1.90735e-006 1.77636e-015 -1.90735e-006 -125.857 -9.92378 -70.4969 -7.25225 -1.74978 -1.90737e-006 -30.8751 18.6458 -156.084 15.5937 -0.270844 -0.188577 -23.7021 31.6461 91.4397 15.9314 1.14111 0.351143 -18.5393 29.0527 57.4763 16.1689 4.44089e-016 -1.06581e-014 -23.5736 -4.67383 42.1258 5.78264 1.05714 3.73211 25.2077 26.5693 -35.0133 6.12661 8.45826 4.79224e-007 -88.9944 -0.0318756 -179.968 -9.73979 -2.74988 -4.0001 -140.919 17.9387 137.846 13.6591 -4.76837e-007 -1.90735e-006 -131.041 -6.54532e-006 5.30102e-006 9.07515 9.53674e-007 -1.90735e-006 157.455 3.91715e-006 -9.66906e-006 8.13856 -2.98023e-008 -3.55271e-015 -79.6132 -44.4167 9.78698 3.79737 6.30086 2.14519e-006 142.316 15.416 11.602 0.838764 -1.90735e-006 1.43051e-006 1.19545e-006 5.53491e-006 9.7454e-009 -4.16929 2.10533 3.95055 -131.697 -1.37625 -162.03 13.6591 2.86102e-006 7.10543e-015 -108.864 -9.11909e-006 1.85324e-005 9.07515 -9.53674e-007 -1.90735e-006 136.686 -4.69997e-006 -9.09345e-006 8.13856 9.53674e-007 3.55271e-015 -76.4899 15.6938 -41.3513 3.79737 6.30086 -1.24917e-010 89.9995 6.76526e-005 -12.4979 0.838761 1.49012e-008 -3.55271e-015 -179.96 9.9254e-005 -1.59995e-005 12.1681 -0.0104809 4.76834e-007 -7.77667 0.00626774 0.0109423 -0.1575 5.09008 -6.54008 -92.7406 -0.0220269 -167.965 -0.157498 5.09006 6.54 87.255 -0.000390228 12.0139 8.29709 8.50413 2.06727e-009 -91.651 -0.0231628 -179.978 13.2887 -0.00747108 -1.81188e-012 42.9355 -0.0192006 -0.0488125 12.4892 -6.66662 -6.96173e-005 -2.59795 0.555982 -0.14481 -7.54468 -2.59502 -1.13396 -177.545 -26.2937 111.709 13.2557 -7.10543e-015 -4.76837e-007 69.7023 12.7383 -107.473 12.8897 9.53674e-007 3.55271e-015 -133.17 9.77522e-006 -1.19349e-005 11.2622 5.96046e-008 -1.90735e-006 -141.611 82.8146 144.069 3.98015 -0.208662 -0.0949758 2.26467 8.79012 -35.9001 6.57562 1.90735e-006 7.10543e-015 -179.96 4.45227e-005 1.72506e-005 -7.5387 -2.57163 1.22172 -177.207 55.8795 -93.9512 13.2557 -1.42109e-014 -7.10543e-015 92.1776 -68.3123 146.131 12.8897 3.55271e-015 -1.77636e-015 -92.3939 -1.68988e-005 3.92615e-006 11.2623 0 -1.24345e-014 21.1694 -67.5093 -2.4197 3.98015 -0.208661 0.0949756 1.93947 -31.3153 43.1926 6.57562 1.24345e-014 -5.96046e-008 9.41599e-007 1.05453e-005 3.1556e-007 4.19563 -0.00280762 -4.76836e-007 32.6561 -1.60928e-005 6.3614e-006 4.17604 0.298252 -4.7775e-007 23.5337 -1.18788 8.60717 6.53259 -3.90694 -2.55362 142.103 15.3491 161.01 6.5326 -3.90695 2.55371 -40.967 16.301 -18.1513 1.75934 -4.15839 -4.45634 24.3814 -39.5241 141.947 1.75934 -4.15841 4.45617 -154.414 -40.1317 -36.5743 11.2964 -1.06183 2.32054 151.587 -1.63046 -119.276 11.2964 -1.06182 -2.32036 -29.0673 -1.70014 61.4084 1.31489 1.30001 -4.80975e-007 -174.851 -0.0310822 -179.999 12.6869 2.86102e-006 -1.33227e-015 -8.43776e-008 1.17784e-005 -2.19225e-007 
-37.3225 12.8167 12.1303 27.8048 -57.6448 90.1364 -1.90735e-006 0 -1.90735e-006 -125.968 -9.83227 -70.4683 -7.25225 -1.74978 -1.90735e-006 -30.7867 18.7674 -156.101 15.5937 -0.270844 -0.188577 -23.6792 31.6329 91.4728 15.9314 1.14111 0.351143 -18.5393 29.0527 57.4763 16.1689 1.24345e-014 -1.06581e-014 -23.5736 -4.67383 42.1258 5.77756 1.06712 3.73713 25.3157 26.6814 -35.2232 6.12661 8.45826 4.80404e-007 -88.9944 -0.0318756 -179.968 -9.75164 -2.77021 -3.96606 -140.852 17.9138 137.746 13.6591 -4.76837e-007 -1.90735e-006 -130.952 -5.47024e-006 6.23459e-006 9.07515 9.53674e-007 -1.90735e-006 157.3 3.94998e-006 -9.66319e-006 8.13856 -2.98023e-008 0 -79.5765 -44.4007 9.80019 3.79737 6.30086 2.14514e-006 142.316 15.416 11.602 0.838764 -1.90735e-006 1.43051e-006 1.19545e-006 5.53491e-006 9.74538e-009 -4.15749 2.10405 3.95675 -131.65 -1.50139 -162.123 13.6591 2.86102e-006 -3.55271e-015 -108.885 8.36492e-008 2.16574e-005 9.07515 -9.53674e-007 -1.90735e-006 136.674 -4.70049e-006 -9.087e-006 8.13856 9.53674e-007 -3.55271e-015 -76.4705 15.6848 -41.37 3.79737 6.30086 -1.91735e-010 89.9995 6.76526e-005 -12.4979 0.838761 1.49012e-008 7.10543e-015 -179.96 9.9254e-005 -1.59995e-005 12.1681 -0.0104809 4.76833e-007 -7.75914 0.00603674 0.0144293 -0.1575 5.09008 -6.54008 -92.7406 -0.0220269 -167.965 -0.157498 5.09006 6.54 87.255 -0.000385098 12.0139 8.29709 8.50413 3.10223e-009 -91.651 -0.0231781 -179.977 13.2887 -0.00747108 -2.72049e-012 42.9732 -0.0262455 0.0479144 12.4892 -6.66662 -6.96166e-005 -2.47939 0.299839 -0.115943 -7.55018 -2.57494 -1.14934 -177.645 -26.5478 111.756 13.2557 -1.06581e-014 -4.76837e-007 69.8697 12.8899 -107.456 12.8897 9.53674e-007 3.55271e-015 -132.857 2.35293e-006 -1.87723e-005 11.2622 5.96046e-008 -1.90735e-006 -142.98 82.7036 145.338 3.98015 -0.208662 -0.0949758 2.25632 8.77503 -35.9145 6.57562 1.90735e-006 7.99361e-015 -179.96 4.45227e-005 1.72506e-005 -7.54541 -2.56222 1.20638 -177.385 55.6246 -93.8768 13.2557 -2.4869e-014 -1.77636e-014 92.0654 -68.4461 146.083 12.8897 -7.10543e-015 -8.88178e-015 -92.2541 -2.48636e-005 3.63881e-006 11.2623 4.44089e-016 -1.59872e-014 20.6307 -67.4392 -2.88014 3.98015 -0.208661 0.0949756 1.90999 -31.2868 43.2248 6.57562 1.06581e-014 -5.96046e-008 9.41599e-007 1.05453e-005 3.1556e-007 4.19563 -0.00280762 -4.76835e-007 32.6561 -1.60114e-005 6.3925e-006 4.17604 0.298252 -4.78204e-007 23.7871 -0.995663 8.73445 6.53259 -3.90694 -2.55362 142.204 15.3075 161 6.5326 -3.90695 2.55371 -40.8497 16.2549 -18.1604 1.75934 -4.15839 -4.45634 24.177 -39.4197 141.691 1.75934 -4.15841 4.45617 -154.018 -40.3279 -36.0927 11.2964 -1.06183 2.32054 151.73 -1.37378 -118.526 11.2964 -1.06182 -2.32036 -29.2472 -1.48057 61.2646 1.31489 1.30001 -4.8301e-007 -174.787 -0.0312958 -179.999 12.6869 2.86102e-006 -8.88178e-015 -8.43776e-008 1.17784e-005 -2.19225e-007 
